<svg width="20" height="20" viewBox="0 0 20 20" fill="none" xmlns="http://www.w3.org/2000/svg">
<path d="M4.16602 15.8337H5.21727L13.7477 7.30324L12.6964 6.25199L4.16602 14.7824V15.8337ZM2.91602 17.0837V14.2632L13.9081 3.27595C14.0341 3.16151 14.1732 3.0731 14.3254 3.01074C14.4778 2.94824 14.6375 2.91699 14.8046 2.91699C14.9716 2.91699 15.1334 2.94665 15.29 3.00595C15.4466 3.06526 15.5853 3.15956 15.706 3.28887L16.7237 4.31928C16.853 4.43998 16.9452 4.57887 17.0002 4.73595C17.0552 4.89303 17.0827 5.05012 17.0827 5.2072C17.0827 5.37484 17.0541 5.53477 16.9969 5.68699C16.9396 5.83935 16.8486 5.97852 16.7237 6.10449L5.73643 17.0837H2.91602ZM13.2129 6.78678L12.6964 6.25199L13.7477 7.30324L13.2129 6.78678Z" fill="#999999"/>
</svg>
