<svg width="21" height="20" viewBox="0 0 21 20" fill="none" xmlns="http://www.w3.org/2000/svg">
<path d="M4.92345 17.9167C4.50248 17.9167 4.14616 17.7708 3.85449 17.4792C3.56283 17.1875 3.41699 16.8312 3.41699 16.4102V5.25647C3.41699 4.8355 3.56283 4.47918 3.85449 4.18751C4.14616 3.89585 4.50248 3.75001 4.92345 3.75001H6.0772V1.9873H7.35928V3.75001H13.6735V1.9873H14.9235V3.75001H16.0772C16.4982 3.75001 16.8545 3.89585 17.1462 4.18751C17.4378 4.47918 17.5837 4.8355 17.5837 5.25647V16.4102C17.5837 16.8312 17.4378 17.1875 17.1462 17.4792C16.8545 17.7708 16.4982 17.9167 16.0772 17.9167H4.92345ZM4.92345 16.6667H16.0772C16.1414 16.6667 16.2001 16.6399 16.2535 16.5865C16.3069 16.5331 16.3337 16.4744 16.3337 16.4102V8.5898H4.66699V16.4102C4.66699 16.4744 4.69373 16.5331 4.7472 16.5865C4.80053 16.6399 4.85928 16.6667 4.92345 16.6667ZM4.66699 7.3398H16.3337V5.25647C16.3337 5.1923 16.3069 5.13355 16.2535 5.08022C16.2001 5.02675 16.1414 5.00001 16.0772 5.00001H4.92345C4.85928 5.00001 4.80053 5.02675 4.7472 5.08022C4.69373 5.13355 4.66699 5.1923 4.66699 5.25647V7.3398ZM10.5003 11.7308C10.2963 11.7308 10.1224 11.659 9.97866 11.5152C9.83505 11.3716 9.76324 11.1977 9.76324 10.9936C9.76324 10.7895 9.83505 10.6156 9.97866 10.4719C10.1224 10.3283 10.2963 10.2565 10.5003 10.2565C10.7044 10.2565 10.8782 10.3283 11.022 10.4719C11.1656 10.6156 11.2374 10.7895 11.2374 10.9936C11.2374 11.1977 11.1656 11.3716 11.022 11.5152C10.8782 11.659 10.7044 11.7308 10.5003 11.7308ZM7.16699 11.7308C6.96296 11.7308 6.78908 11.659 6.64533 11.5152C6.50171 11.3716 6.42991 11.1977 6.42991 10.9936C6.42991 10.7895 6.50171 10.6156 6.64533 10.4719C6.78908 10.3283 6.96296 10.2565 7.16699 10.2565C7.37102 10.2565 7.54491 10.3283 7.68866 10.4719C7.83227 10.6156 7.90408 10.7895 7.90408 10.9936C7.90408 11.1977 7.83227 11.3716 7.68866 11.5152C7.54491 11.659 7.37102 11.7308 7.16699 11.7308ZM13.8337 11.7308C13.6296 11.7308 13.4557 11.659 13.312 11.5152C13.1684 11.3716 13.0966 11.1977 13.0966 10.9936C13.0966 10.7895 13.1684 10.6156 13.312 10.4719C13.4557 10.3283 13.6296 10.2565 13.8337 10.2565C14.0377 10.2565 14.2116 10.3283 14.3553 10.4719C14.4989 10.6156 14.5707 10.7895 14.5707 10.9936C14.5707 11.1977 14.4989 11.3716 14.3553 11.5152C14.2116 11.659 14.0377 11.7308 13.8337 11.7308ZM10.5003 15C10.2963 15 10.1224 14.9281 9.97866 14.7844C9.83505 14.6408 9.76324 14.467 9.76324 14.2629C9.76324 14.0588 9.83505 13.8849 9.97866 13.7413C10.1224 13.5975 10.2963 13.5256 10.5003 13.5256C10.7044 13.5256 10.8782 13.5975 11.022 13.7413C11.1656 13.8849 11.2374 14.0588 11.2374 14.2629C11.2374 14.467 11.1656 14.6408 11.022 14.7844C10.8782 14.9281 10.7044 15 10.5003 15ZM7.16699 15C6.96296 15 6.78908 14.9281 6.64533 14.7844C6.50171 14.6408 6.42991 14.467 6.42991 14.2629C6.42991 14.0588 6.50171 13.8849 6.64533 13.7413C6.78908 13.5975 6.96296 13.5256 7.16699 13.5256C7.37102 13.5256 7.54491 13.5975 7.68866 13.7413C7.83227 13.8849 7.90408 14.0588 7.90408 14.2629C7.90408 14.467 7.83227 14.6408 7.68866 14.7844C7.54491 14.9281 7.37102 15 7.16699 15ZM13.8337 15C13.6296 15 13.4557 14.9281 13.312 14.7844C13.1684 14.6408 13.0966 14.467 13.0966 14.2629C13.0966 14.0588 13.1684 13.8849 13.312 13.7413C13.4557 13.5975 13.6296 13.5256 13.8337 13.5256C14.0377 13.5256 14.2116 13.5975 14.3553 13.7413C14.4989 13.8849 14.5707 14.0588 14.5707 14.2629C14.5707 14.467 14.4989 14.6408 14.3553 14.7844C14.2116 14.9281 14.0377 15 13.8337 15Z" fill="#999999"/>
</svg>
