<svg width="65" height="64" viewBox="0 0 65 64" fill="none" xmlns="http://www.w3.org/2000/svg">
<path d="M30.5003 44.667H34.5003V34.0003H45.167V30.0003H34.5003V19.3337H30.5003V30.0003H19.8337V34.0003H30.5003V44.667ZM32.505 57.3337C29.001 57.3337 25.7074 56.6688 22.6243 55.339C19.5412 54.0092 16.8594 52.2045 14.579 49.925C12.2985 47.6454 10.493 44.9648 9.16233 41.883C7.8321 38.8012 7.16699 35.5086 7.16699 32.005C7.16699 28.501 7.83188 25.2074 9.16166 22.1243C10.4914 19.0412 12.2961 16.3594 14.5757 14.079C16.8552 11.7985 19.5359 9.99299 22.6177 8.66233C25.6994 7.3321 28.9921 6.66699 32.4957 6.66699C35.9997 6.66699 39.2932 7.33188 42.3763 8.66166C45.4594 9.99144 48.1412 11.7961 50.4217 14.0757C52.7021 16.3552 54.5077 19.0359 55.8383 22.1177C57.1686 25.1994 57.8337 28.4921 57.8337 31.9957C57.8337 35.4997 57.1688 38.7932 55.839 41.8763C54.5092 44.9594 52.7045 47.6412 50.425 49.9217C48.1454 52.2021 45.4648 54.0077 42.383 55.3383C39.3012 56.6686 36.0086 57.3337 32.505 57.3337ZM32.5003 53.3337C38.4559 53.3337 43.5003 51.267 47.6337 47.1337C51.767 43.0003 53.8337 37.9559 53.8337 32.0003C53.8337 26.0448 51.767 21.0003 47.6337 16.867C43.5003 12.7337 38.4559 10.667 32.5003 10.667C26.5448 10.667 21.5003 12.7337 17.367 16.867C13.2337 21.0003 11.167 26.0448 11.167 32.0003C11.167 37.9559 13.2337 43.0003 17.367 47.1337C21.5003 51.267 26.5448 53.3337 32.5003 53.3337Z" fill="url(#paint0_linear_25_249)"/>
<defs>
<linearGradient id="paint0_linear_25_249" x1="23.9752" y1="4.50684" x2="34.3365" y2="61.5097" gradientUnits="userSpaceOnUse">
<stop stop-color="#DD2A7B"/>
<stop offset="0.41261" stop-color="#9747FF"/>
<stop offset="1" stop-color="#334CCA"/>
</linearGradient>
</defs>
</svg>
