<svg width="77" height="14" viewBox="0 0 77 14" fill="none" xmlns="http://www.w3.org/2000/svg">
<path d="M39.396 6.81055C40.7052 6.86181 41.6065 8.64799 41.7085 9.03906C41.8104 9.43009 41.8101 10.0078 41.1646 10.042C40.5185 10.076 40.3481 9.77531 39.8042 9.68457C39.7307 9.67233 39.6002 9.66799 39.5659 9.66797C39.4639 9.66797 39.3328 9.67696 39.2935 9.68457C39.1177 9.71861 38.6643 9.82404 38.2563 9.97363C37.7463 10.1607 36.964 10.0249 37.1167 9.12402C37.2697 8.22278 38.0866 6.75953 39.396 6.81055ZM36.1733 5.40234C36.6096 5.18502 37.2055 5.49389 37.5044 6.09277C37.8033 6.69204 37.6918 7.35456 37.2554 7.57227C36.819 7.78993 36.2233 7.48089 35.9243 6.88184C35.6254 6.28256 35.7369 5.62004 36.1733 5.40234ZM41.0942 6.02539C41.3675 5.40743 41.9538 5.06762 42.4038 5.2666C42.8538 5.46563 42.9973 6.1281 42.7241 6.74609C42.4509 7.36396 41.8646 7.70354 41.4146 7.50488C40.9645 7.30589 40.821 6.64342 41.0942 6.02539ZM39.4839 4.27441C39.6733 3.57139 40.2424 3.11314 40.7544 3.25098C41.2665 3.38885 41.5277 4.0712 41.3384 4.77441C41.149 5.47738 40.5809 5.93562 40.0688 5.79785C39.5567 5.65999 39.2946 4.97764 39.4839 4.27441ZM37.8423 3.23438C38.3551 3.10039 38.9204 3.56255 39.105 4.2666C39.2895 4.97109 39.0233 5.65173 38.5103 5.78613C37.9973 5.92048 37.4322 5.45822 37.2476 4.75391C37.063 4.04942 37.3292 3.36878 37.8423 3.23438Z" fill="url(#paint0_linear_25_676)"/>
<path d="M73.2722 10.1353L75.6623 3.22754H76.5772L73.329 12.1353C73.2628 12.3103 73.1777 12.5041 73.0737 12.7169C72.9744 12.9297 72.842 13.133 72.6765 13.3268C72.5157 13.5254 72.3124 13.6862 72.0666 13.8091C71.8254 13.9368 71.5299 14.0006 71.18 14.0006C71.0902 14.0006 70.9744 13.9888 70.8325 13.9651C70.6954 13.9462 70.5961 13.9273 70.5347 13.9084L70.5276 13.1921C70.5796 13.2063 70.6552 13.2181 70.7545 13.2275C70.8538 13.237 70.9224 13.2417 70.9602 13.2417C71.2675 13.2417 71.5252 13.1897 71.7332 13.0857C71.946 12.9817 72.1233 12.8256 72.2651 12.6176C72.407 12.4143 72.5323 12.159 72.641 11.8517L73.2722 10.1353ZM71.0382 3.22754L73.485 9.81619L73.712 10.7027L73.0949 11.0502L70.1162 3.22754H71.0382Z" fill="#999999"/>
<path d="M59.4985 4.81546V10.9006H58.6475V3.2268H59.4631L59.4985 4.81546ZM59.3425 6.58851L58.9311 6.37574C58.9595 5.92184 59.0446 5.49631 59.1865 5.09915C59.333 4.70198 59.5363 4.3521 59.7964 4.0495C60.0564 3.7469 60.3685 3.51049 60.7326 3.34028C61.0966 3.17007 61.5103 3.08496 61.9737 3.08496C62.3472 3.08496 62.6853 3.13697 62.9879 3.24099C63.2952 3.34028 63.5553 3.49867 63.768 3.71617C63.9855 3.92893 64.1534 4.20789 64.2716 4.55305C64.3898 4.8982 64.4489 5.31191 64.4489 5.79418V10.9006H63.6049V5.82255C63.6049 5.31191 63.5245 4.91238 63.3638 4.62397C63.2077 4.33555 62.9879 4.12988 62.7042 4.00695C62.4252 3.88402 62.1014 3.82255 61.7326 3.82255C61.2976 3.82255 60.9288 3.91238 60.6262 4.09205C60.3283 4.26699 60.0848 4.49631 59.8957 4.78C59.7113 5.05896 59.5742 5.35919 59.4843 5.68071C59.3945 5.99749 59.3472 6.30009 59.3425 6.58851ZM64.4418 5.92184L63.8744 5.93602C63.8981 5.5625 63.9832 5.20553 64.1297 4.8651C64.281 4.52468 64.4867 4.22208 64.7468 3.9573C65.0068 3.6878 65.3165 3.47503 65.6758 3.319C66.0399 3.16298 66.4489 3.08496 66.9028 3.08496C67.2999 3.08496 67.6546 3.13933 67.9666 3.24808C68.2787 3.3521 68.5411 3.51995 68.7538 3.75163C68.9713 3.97858 69.1368 4.26936 69.2503 4.62397C69.3638 4.97858 69.4205 5.40411 69.4205 5.90056V10.9006H68.5694V5.89347C68.5694 5.34974 68.4891 4.92893 68.3283 4.63106C68.1723 4.32846 67.9548 4.11806 67.6758 3.99985C67.3969 3.88165 67.0706 3.82255 66.6971 3.82255C66.3283 3.82728 66.0044 3.89584 65.7255 4.02822C65.4465 4.15588 65.2125 4.3261 65.0233 4.53886C64.839 4.7469 64.6971 4.97149 64.5978 5.21262C64.5033 5.45376 64.4512 5.69016 64.4418 5.92184Z" fill="#999999"/>
<path d="M50.668 7.18425V6.95021C50.668 6.39229 50.7483 5.87692 50.9091 5.40411C51.0699 4.9313 51.2992 4.52231 51.597 4.17716C51.8996 3.83201 52.2613 3.56487 52.6822 3.37574C53.103 3.18189 53.571 3.08496 54.0864 3.08496C54.6065 3.08496 55.077 3.18189 55.4978 3.37574C55.9186 3.56487 56.2803 3.83201 56.5829 4.17716C56.8855 4.52231 57.1171 4.9313 57.2779 5.40411C57.4387 5.87692 57.519 6.39229 57.519 6.95021V7.18425C57.519 7.74217 57.4387 8.25754 57.2779 8.73035C57.1171 9.19844 56.8855 9.60506 56.5829 9.95021C56.285 10.2954 55.9257 10.5649 55.5048 10.7587C55.084 10.9478 54.616 11.0424 54.1006 11.0424C53.5805 11.0424 53.11 10.9478 52.6892 10.7587C52.2684 10.5649 51.9067 10.2954 51.6041 9.95021C51.3015 9.60506 51.0699 9.19844 50.9091 8.73035C50.7483 8.25754 50.668 7.74217 50.668 7.18425ZM51.5119 6.95021V7.18425C51.5119 7.60506 51.5687 8.00458 51.6822 8.38283C51.7956 8.75636 51.9611 9.08969 52.1786 9.38283C52.3961 9.67125 52.6656 9.8982 52.9871 10.0637C53.3086 10.2292 53.6798 10.3119 54.1006 10.3119C54.5167 10.3119 54.8831 10.2292 55.1999 10.0637C55.5214 9.8982 55.7909 9.67125 56.0084 9.38283C56.2259 9.08969 56.389 8.75636 56.4978 8.38283C56.6112 8.00458 56.668 7.60506 56.668 7.18425V6.95021C56.668 6.53413 56.6112 6.13933 56.4978 5.76581C56.389 5.39229 56.2235 5.05896 56.0013 4.76581C55.7838 4.47267 55.5143 4.24099 55.1928 4.07078C54.8713 3.90056 54.5025 3.81546 54.0864 3.81546C53.6703 3.81546 53.3015 3.90056 52.98 4.07078C52.6632 4.24099 52.3937 4.47267 52.1715 4.76581C51.954 5.05896 51.7885 5.39229 51.6751 5.76581C51.5663 6.13933 51.5119 6.53413 51.5119 6.95021Z" fill="#999999"/>
<path d="M44.5754 4.8651V10.9006H43.7314V3.2268H44.54L44.5754 4.8651ZM44.3839 6.58851L44.008 6.37574C44.0364 5.92184 44.1286 5.49631 44.2846 5.09915C44.4407 4.70198 44.6511 4.3521 44.9158 4.0495C45.1853 3.7469 45.4998 3.51049 45.8591 3.34028C46.2232 3.17007 46.6251 3.08496 47.0648 3.08496C47.4478 3.08496 47.7905 3.13697 48.0931 3.24099C48.3957 3.34501 48.6534 3.51049 48.8662 3.73744C49.079 3.96439 49.2397 4.25517 49.3485 4.60978C49.4619 4.96439 49.5187 5.39702 49.5187 5.90766V10.9006H48.6676V5.90056C48.6676 5.37101 48.5943 4.9573 48.4478 4.65943C48.3012 4.35683 48.0931 4.1417 47.8236 4.01404C47.5541 3.88638 47.235 3.82255 46.8662 3.82255C46.4596 3.82255 46.1026 3.91238 45.7953 4.09205C45.4927 4.26699 45.2374 4.49631 45.0293 4.78C44.826 5.05896 44.67 5.35919 44.5612 5.68071C44.4525 5.99749 44.3934 6.30009 44.3839 6.58851Z" fill="#999999"/>
<path d="M30.6588 0V10.9007H28.6162V0H30.6588ZM35.4956 3.22695L32.1623 7.02837L30.3751 8.83688L29.6304 7.3617L31.0488 5.56028L33.0417 3.22695H35.4956ZM33.3751 10.9007L31.1056 7.35461L32.5169 6.12057L35.7297 10.9007H33.3751Z" fill="#999999"/>
<path d="M25.9215 4.90056V10.9006H23.8789V3.2268H25.8009L25.9215 4.90056ZM28.2335 3.17716L28.1981 5.07078C28.0988 5.05659 27.9782 5.04477 27.8364 5.03532C27.6992 5.02113 27.5739 5.01404 27.4605 5.01404C27.1721 5.01404 26.9215 5.05186 26.7087 5.12751C26.5007 5.19844 26.3257 5.30482 26.1839 5.44666C26.0468 5.58851 25.9427 5.76108 25.8718 5.96439C25.8056 6.1677 25.7678 6.39938 25.7583 6.65943L25.347 6.53177C25.347 6.03532 25.3966 5.57905 25.4959 5.16298C25.5952 4.74217 25.7394 4.37574 25.9286 4.06368C26.1224 3.75163 26.3588 3.51049 26.6378 3.34028C26.9167 3.17007 27.2359 3.08496 27.5952 3.08496C27.7087 3.08496 27.8245 3.09442 27.9427 3.11333C28.0609 3.12751 28.1579 3.14879 28.2335 3.17716Z" fill="#999999"/>
<path d="M20.8284 9.17007V5.75163C20.8284 5.50576 20.7882 5.29536 20.7079 5.12042C20.6275 4.94075 20.5022 4.80127 20.332 4.70198C20.1665 4.60269 19.9514 4.55305 19.6866 4.55305C19.4596 4.55305 19.2634 4.59324 19.0979 4.67361C18.9325 4.74926 18.8048 4.86037 18.715 5.00695C18.6251 5.14879 18.5802 5.31664 18.5802 5.51049H16.5377C16.5377 5.18425 16.6133 4.87456 16.7646 4.58141C16.9159 4.28827 17.1358 4.03059 17.4242 3.80837C17.7126 3.58141 18.0554 3.40411 18.4526 3.27645C18.8544 3.14879 19.3036 3.08496 19.8001 3.08496C20.3958 3.08496 20.9254 3.18425 21.3887 3.38283C21.8521 3.58141 22.2161 3.87929 22.4809 4.27645C22.7504 4.67361 22.8852 5.17007 22.8852 5.76581V9.0495C22.8852 9.4703 22.9112 9.81546 22.9632 10.085C23.0152 10.3497 23.0908 10.5814 23.1901 10.78V10.9006H21.1263C21.027 10.6925 20.9514 10.4325 20.8994 10.1204C20.8521 9.80364 20.8284 9.48685 20.8284 9.17007ZM21.0979 6.2268L21.1121 7.38283H19.9703C19.7008 7.38283 19.4667 7.41357 19.2682 7.47503C19.0696 7.5365 18.9065 7.62397 18.7788 7.73744C18.6511 7.84619 18.5566 7.97385 18.4951 8.12042C18.4384 8.26699 18.41 8.42775 18.41 8.60269C18.41 8.77763 18.4502 8.93602 18.5306 9.07787C18.6109 9.21498 18.7268 9.32373 18.8781 9.40411C19.0294 9.47976 19.2067 9.51759 19.41 9.51759C19.7173 9.51759 19.9845 9.45612 20.2114 9.33319C20.4384 9.21026 20.6133 9.05896 20.7362 8.87929C20.8639 8.69962 20.9301 8.52941 20.9348 8.36865L21.4738 9.2339C21.3982 9.42775 21.2942 9.6287 21.1618 9.83673C21.0341 10.0448 20.871 10.241 20.6724 10.4254C20.4738 10.6051 20.2351 10.754 19.9561 10.8722C19.6771 10.9857 19.3462 11.0424 18.9632 11.0424C18.4762 11.0424 18.0341 10.9455 17.6369 10.7516C17.2445 10.553 16.9325 10.2812 16.7008 9.93602C16.4738 9.58614 16.3604 9.18898 16.3604 8.74454C16.3604 8.34264 16.436 7.98567 16.5873 7.67361C16.7386 7.36156 16.9608 7.09915 17.254 6.88638C17.5518 6.66889 17.923 6.50576 18.3674 6.39702C18.8119 6.28354 19.3273 6.2268 19.9135 6.2268H21.0979Z" fill="#999999"/>
<path d="M11.1402 4.70198V13.8509H9.09766V3.2268H10.9913L11.1402 4.70198ZM15.9984 6.97858V7.12751C15.9984 7.68543 15.9322 8.20316 15.7998 8.68071C15.6721 9.15825 15.483 9.57432 15.2324 9.92893C14.9818 10.2788 14.6698 10.553 14.2962 10.7516C13.9274 10.9455 13.5019 11.0424 13.0196 11.0424C12.5516 11.0424 12.1449 10.9478 11.7998 10.7587C11.4546 10.5696 11.1639 10.3048 10.9274 9.96439C10.6958 9.61924 10.509 9.21971 10.3672 8.76581C10.2253 8.31191 10.1166 7.82491 10.0409 7.30482V6.91475C10.1166 6.35683 10.2253 5.84619 10.3672 5.38283C10.509 4.91475 10.6958 4.51049 10.9274 4.17007C11.1639 3.82491 11.4523 3.55777 11.7927 3.36865C12.1378 3.17952 12.5421 3.08496 13.0055 3.08496C13.4925 3.08496 13.9204 3.17716 14.2891 3.36156C14.6627 3.54595 14.9747 3.81073 15.2253 4.15588C15.4806 4.50104 15.6721 4.91238 15.7998 5.38993C15.9322 5.86747 15.9984 6.39702 15.9984 6.97858ZM13.9487 7.12751V6.97858C13.9487 6.65234 13.9204 6.3521 13.8636 6.07787C13.8116 5.79891 13.7265 5.55541 13.6083 5.34737C13.4948 5.13933 13.3435 4.97858 13.1544 4.8651C12.97 4.7469 12.7454 4.6878 12.4806 4.6878C12.2017 4.6878 11.9629 4.73272 11.7643 4.82255C11.5705 4.91238 11.4121 5.04241 11.2891 5.21262C11.1662 5.38283 11.074 5.58614 11.0125 5.82255C10.9511 6.05896 10.9133 6.3261 10.8991 6.62397V7.60978C10.9227 7.95967 10.9889 8.27409 11.0977 8.55305C11.2064 8.82728 11.3743 9.04477 11.6012 9.20553C11.8282 9.36628 12.126 9.44666 12.4948 9.44666C12.7643 9.44666 12.9913 9.38756 13.1757 9.26936C13.3601 9.14643 13.509 8.97858 13.6225 8.76581C13.7407 8.55305 13.8234 8.30718 13.8707 8.02822C13.9227 7.74926 13.9487 7.44903 13.9487 7.12751Z" fill="#999999"/>
<path d="M6.23136 8.19857C6.23136 8.01418 6.20299 7.84869 6.14626 7.70212C6.09425 7.55082 5.99496 7.4137 5.84838 7.29077C5.70181 7.16311 5.49614 7.03782 5.23136 6.91489C4.96659 6.79195 4.6238 6.6643 4.20299 6.53191C3.73491 6.38061 3.29046 6.21039 2.86966 6.02127C2.45358 5.83214 2.08479 5.61229 1.76328 5.36169C1.44649 5.10638 1.1959 4.81087 1.0115 4.47517C0.831835 4.13947 0.742001 3.7494 0.742001 3.30496C0.742001 2.8747 0.836563 2.48463 1.02569 2.13474C1.21481 1.78013 1.47959 1.47753 1.82001 1.22694C2.16044 0.971624 2.56233 0.775407 3.02569 0.638291C3.49377 0.501175 4.00678 0.432617 4.5647 0.432617C5.32593 0.432617 5.99023 0.569733 6.5576 0.843965C7.12498 1.1182 7.5647 1.49408 7.87675 1.97162C8.19354 2.44917 8.35193 2.99526 8.35193 3.60992H6.23845C6.23845 3.30732 6.17462 3.04255 6.04697 2.8156C5.92403 2.58392 5.73491 2.40188 5.47959 2.2695C5.229 2.13711 4.91221 2.07091 4.52923 2.07091C4.16044 2.07091 3.85311 2.12765 3.60725 2.24113C3.36139 2.34987 3.17699 2.49881 3.05406 2.68794C2.93113 2.87233 2.86966 3.08037 2.86966 3.31205C2.86966 3.48699 2.91221 3.64538 2.99732 3.78723C3.08715 3.92907 3.21954 4.06146 3.39448 4.18439C3.56942 4.30732 3.78455 4.42316 4.03987 4.53191C4.29519 4.64065 4.5907 4.74704 4.9264 4.85106C5.48905 5.02127 5.98314 5.21276 6.40867 5.42552C6.83893 5.63829 7.19827 5.87706 7.48668 6.14184C7.7751 6.40661 7.99259 6.70685 8.13916 7.04255C8.28574 7.37824 8.35902 7.75886 8.35902 8.18439C8.35902 8.63356 8.27155 9.03545 8.09661 9.39006C7.92167 9.74467 7.66872 10.0449 7.33775 10.2908C7.00678 10.5366 6.61198 10.7234 6.15335 10.8511C5.69472 10.9787 5.18172 11.0425 4.61434 11.0425C4.1037 11.0425 3.60016 10.9764 3.1037 10.844C2.60725 10.7068 2.15571 10.5012 1.74909 10.2269C1.3472 9.95271 1.02569 9.60283 0.784554 9.1773C0.543419 8.75177 0.422852 8.24822 0.422852 7.66666H2.5576C2.5576 7.98817 2.60725 8.26004 2.70654 8.48226C2.80583 8.70448 2.94531 8.88415 3.12498 9.02127C3.30938 9.15839 3.52687 9.25768 3.77746 9.31914C4.03278 9.38061 4.31174 9.41134 4.61434 9.41134C4.98314 9.41134 5.28574 9.35933 5.52214 9.25531C5.76328 9.15129 5.94058 9.00708 6.05406 8.82269C6.17226 8.63829 6.23136 8.43025 6.23136 8.19857Z" fill="#999999"/>
<defs>
<linearGradient id="paint0_linear_25_676" x1="38.1137" y1="2.92053" x2="39.4611" y2="10.6281" gradientUnits="userSpaceOnUse">
<stop stop-color="#DD2A7B"/>
<stop offset="0.41261" stop-color="#9747FF"/>
<stop offset="1" stop-color="#334CCA"/>
</linearGradient>
</defs>
</svg>
