<svg width="21" height="18" viewBox="0 0 21 18" fill="none" xmlns="http://www.w3.org/2000/svg">
<path d="M3.56684 18V16.4118H17.4332V18H3.56684ZM3.53658 14.62L2.10316 6.32647C2.06807 6.33318 2.0286 6.33926 1.98474 6.34474C1.94088 6.35021 1.9014 6.35294 1.86632 6.35294C1.48175 6.35294 1.15789 6.21935 0.894737 5.95218C0.631579 5.68482 0.5 5.36029 0.5 4.97859C0.5 4.59106 0.631579 4.26168 0.894737 3.99044C1.15789 3.71938 1.48202 3.58385 1.86711 3.58385C2.25202 3.58385 2.57921 3.71938 2.84868 3.99044C3.11833 4.26168 3.25316 4.59106 3.25316 4.97859C3.25316 5.07706 3.245 5.16856 3.22868 5.25309C3.21254 5.33744 3.18693 5.41694 3.15184 5.49159L6.48184 6.9128L9.69026 2.50862C9.51763 2.38774 9.37833 2.22874 9.27237 2.03162C9.1664 1.8345 9.11342 1.62221 9.11342 1.39474C9.11342 1.00738 9.24816 0.678088 9.51763 0.406853C9.78711 0.135618 10.1144 0 10.4995 0C10.8844 0 11.2118 0.135441 11.4818 0.406323C11.7517 0.677029 11.8866 1.00588 11.8866 1.39288C11.8866 1.62494 11.8336 1.83873 11.7276 2.03426C11.6217 2.22962 11.4824 2.38774 11.3097 2.50862L14.5182 6.9128L17.8482 5.49159C17.8211 5.41941 17.7975 5.33991 17.7774 5.25309C17.757 5.16644 17.7468 5.07494 17.7468 4.97859C17.7468 4.59106 17.8784 4.26168 18.1416 3.99044C18.4047 3.71938 18.7289 3.58385 19.1139 3.58385C19.4989 3.58385 19.8261 3.71938 20.0958 3.99044C20.3653 4.26168 20.5 4.59106 20.5 4.97859C20.5 5.35924 20.365 5.6835 20.095 5.95138C19.825 6.21909 19.4971 6.35294 19.1113 6.35294C19.0804 6.35294 19.0457 6.34853 19.0071 6.33971C18.9687 6.33088 18.9308 6.32647 18.8934 6.32647L17.4634 14.62H3.53658ZM4.88053 13.0317H16.1195L17.1074 7.57244L13.9797 8.88194L10.5 4.07859L7.02026 8.88194L3.89263 7.57244L4.88053 13.0317Z" fill="url(#paint0_linear_25_301)"/>
<defs>
<linearGradient id="paint0_linear_25_301" x1="7.13482" y1="-0.767422" x2="10.468" y2="19.6074" gradientUnits="userSpaceOnUse">
<stop stop-color="#DD2A7B"/>
<stop offset="0.41261" stop-color="#9747FF"/>
<stop offset="1" stop-color="#334CCA"/>
</linearGradient>
</defs>
</svg>
