<svg width="15" height="20" viewBox="0 0 15 20" fill="none" xmlns="http://www.w3.org/2000/svg">
<path d="M0 16.7888V15.289H1.80775V7.8273C1.80775 6.48246 2.22283 5.29338 3.053 4.26005C3.883 3.22671 4.94867 2.5658 6.25 2.2773V1.6543C6.25 1.30713 6.37142 1.01196 6.61425 0.768797C6.85708 0.525797 7.15192 0.404297 7.49875 0.404297C7.84575 0.404297 8.141 0.525797 8.3845 0.768797C8.62817 1.01196 8.75 1.30713 8.75 1.6543V2.2773C10.0513 2.5658 11.117 3.22671 11.947 4.26005C12.7772 5.29338 13.1923 6.48246 13.1923 7.8273V15.289H15V16.7888H0ZM7.49825 19.5965C7.00075 19.5965 6.57542 19.4195 6.22225 19.0655C5.86892 18.7115 5.69225 18.286 5.69225 17.7888H9.30775C9.30775 18.2876 9.13058 18.7136 8.77625 19.0668C8.42192 19.42 7.99592 19.5965 7.49825 19.5965ZM3.30775 15.289H11.6923V7.8273C11.6923 6.66963 11.283 5.68155 10.4645 4.86305C9.64583 4.04438 8.65767 3.63505 7.5 3.63505C6.34233 3.63505 5.35417 4.04438 4.5355 4.86305C3.717 5.68155 3.30775 6.66963 3.30775 7.8273V15.289Z" fill="#999999"/>
</svg>
